PathFileType	4	(X/Y/Z)	/Users/itak/Documents/Research/Walk-IL/dataset/trc/00244_00009.trc
DataRate	CameraRate	NumFrames	NumMarkers	Units	OrigDataRate	OrigDataStartFrame	OrigNumFrames
100.000000	100.000000	4	53	mm	100.000000	536	858
Frame#	Time	RPSI			LPSI			L3			STRN			T10			C7			CLAV			RBAK			LBAK			LSHO			LUPA			LAEL			LAOL			LWTS			LWPS			LFRA			LIFD			LHPS			LHTS			RSHO			RUPA			RAEL			RAOL			RWTS			RWPS			RFRA			RIFD			RHTS			RHPS			RBHD			LFHD			RFHD			LBHD			LHIP			RHIP			RASI			LASI			LKNE			LTHI			LANK			LTIP			LTOE			LMT1			LMT5			LHEE			RKNE			RTHI			RANK			RTIP			RTOE			RMT1			RMT5			RHEE			
		X1	Y1	Z1	X2	Y2	Z2	X3	Y3	Z3	X4	Y4	Z4	X5	Y5	Z5	X6	Y6	Z6	X7	Y7	Z7	X8	Y8	Z8	X9	Y9	Z9	X10	Y10	Z10	X11	Y11	Z11	X12	Y12	Z12	X13	Y13	Z13	X14	Y14	Z14	X15	Y15	Z15	X16	Y16	Z16	X17	Y17	Z17	X18	Y18	Z18	X19	Y19	Z19	X20	Y20	Z20	X21	Y21	Z21	X22	Y22	Z22	X23	Y23	Z23	X24	Y24	Z24	X25	Y25	Z25	X26	Y26	Z26	X27	Y27	Z27	X28	Y28	Z28	X29	Y29	Z29	X30	Y30	Z30	X31	Y31	Z31	X32	Y32	Z32	X33	Y33	Z33	X34	Y34	Z34	X35	Y35	Z35	X36	Y36	Z36	X37	Y37	Z37	X38	Y38	Z38	X39	Y39	Z39	X40	Y40	Z40	X41	Y41	Z41	X42	Y42	Z42	X43	Y43	Z43	X44	Y44	Z44	X45	Y45	Z45	X46	Y46	Z46	X47	Y47	Z47	X48	Y48	Z48	X49	Y49	Z49	X50	Y50	Z50	X51	Y51	Z51	X52	Y52	Z52	X53	Y53	Z53	

537	5.36	70.98060607910156	1028.881103515625	-443.5260620117188	105.3987426757812	1041.713500976562	-558.2426147460938	89.06525421142578	1120.765991210938	-518.0490112304688	332.8604736328125	1298.87646484375	-443.8829956054688	90.20506286621094	1246.983276367188	-514.3565673828125	155.79052734375	1506.79443359375	-497.8645935058594	311.2616271972656	1417.24755859375	-448.6946716308594	59.41720962524414	1370.183959960938	-451.2389526367188	169.6079254150391	1468.930908203125	-609.9013671875	272.0804748535156	1468.781982421875	-635.0814819335938	272.5320434570312	1354.687866210938	-722.6778564453125	312.7156372070312	1148.687622070312	-756.3628540039062	230.0890502929688	1123.520385742188	-738.4114379882812	407.25927734375	925.8887939453125	-673.3807373046875	414.3833923339844	910.8121337890625	-756.8358154296875	352.1842956542969	1046.011474609375	-763.0042114257812	449.1828308105469	733.6472778320312	-680.1546020507812	442.662841796875	824.8712158203125	-747.4458618164062	461.6218566894531	832.2832641601562	-681.799560546875	162.0987548828125	1464.566772460938	-319.2090759277344	119.9988555908203	1402.075317382812	-261.8160705566406	67.88402557373047	1125.341186523438	-229.2118530273438	62.21730422973633	1117.7939453125	-323.9510192871094	207.4721832275391	909.7259521484375	-226.6966552734375	138.7765655517578	896.490966796875	-180.7022094726562	87.59741973876953	1056.386962890625	-208.2695617675781	222.3193969726562	716.5662231445312	-225.4263153076172	239.9564819335938	789.3406982421875	-198.7162322998047	175.7203979492188	790.1565551757812	-165.4861450195312	174.2766723632812	1653.53857421875	-433.4810791015625	392.3959655761719	1713.743896484375	-457.5978698730469	360.68994140625	1706.912719726562	-362.83349609375	258.4547424316406	1670.856811523438	-544.0359497070312	241.3480529785156	989.7508544921875	-666.1580200195312	134.7793884277344	984.2666015625	-315.2323303222656	237.2859497070312	1033.740478515625	-321.1699829101562	324.8254699707031	1028.2041015625	-587.5662231445312	353.0836486816406	514.9519653320312	-596.6749877929688	328.7030334472656	654.23388671875	-632.249755859375	293.2901000976562	31.07108306884766	-625.7178955078125	326.3165283203125	283.6232604980469	-619.4173583984375	465.0061340332031	39.86540603637695	-482.6952514648438	385.136474609375	37.49594116210938	-472.8381042480469	416.4665222167969	31.13166618347168	-587.4244384765625	216.6987152099609	40.5848388671875	-602.9562377929688	229.2189788818359	495.1024475097656	-324.7031555175781	209.9120788574219	763.1824951171875	-297.1643371582031	-118.4707489013672	157.3839111328125	-427.3326721191406	187.3825531005859	386.845703125	-352.1858215332031	39.80197143554688	41.80557632446289	-481.5020141601562	-0.5476309657096863	80.18942260742188	-522.318115234375	-46.33440780639648	72.59331512451172	-412.8903198242188	-151.4239959716797	214.6866760253906	-477.716064453125	
538	5.37	75.23989105224609	1028.932006835938	-444.4051818847656	111.0626983642578	1041.932739257812	-558.7396240234375	94.43595886230469	1121.325805664062	-518.8801879882812	337.603515625	1298.889404296875	-441.5979919433594	95.97638702392578	1247.424194335938	-515.5027465820312	161.7730102539062	1507.174438476562	-498.295654296875	316.2559814453125	1417.283935546875	-446.7705078125	64.37156677246094	1370.75732421875	-453.1318054199219	177.2850952148438	1469.193481445312	-610.1658325195312	280.1447448730469	1468.802978515625	-633.69677734375	282.2510070800781	1354.729370117188	-721.187744140625	323.9534912109375	1148.976318359375	-754.3606567382812	241.0559539794922	1123.429443359375	-738.0206298828125	418.0227661132812	926.9004516601562	-669.38232421875	426.6884765625	911.4900512695312	-752.6214599609375	363.9815979003906	1046.444580078125	-760.1698608398438	461.7665405273438	735.0951538085938	-674.3640747070312	455.0806274414062	825.3174438476562	-741.9766235351562	473.3104553222656	833.8499755859375	-676.4141235351562	165.250244140625	1464.928833007812	-319.5155334472656	122.2329406738281	1402.402221679688	-262.8026733398438	69.69028472900391	1125.587890625	-230.9401092529297	65.46428680419922	1118.005615234375	-325.7508239746094	210.4059448242188	910.8759155273438	-226.1737976074219	140.8790130615234	897.0324096679688	-181.4627990722656	89.31834411621094	1056.6923828125	-209.6909027099609	227.3919677734375	718.0628662109375	-224.2960510253906	243.6482391357422	791.0057373046875	-197.3351287841797	178.6891326904297	791.1028442382812	-165.4712219238281	179.4126892089844	1653.822021484375	-433.7593078613281	397.8541870117188	1713.932373046875	-454.9449157714844	364.8460083007812	1707.226196289062	-360.6187744140625	265.1025085449219	1670.984008789062	-543.1639404296875	248.1695709228516	989.9170532226562	-665.296142578125	137.8660430908203	984.6524047851562	-315.4067687988281	240.3361206054688	1033.950073242188	-320.3324890136719	330.7822570800781	1028.371215820312	-585.8914794921875	356.0620422363281	514.3865356445312	-595.6336669921875	332.9937438964844	654.0157470703125	-631.12060546875	293.2776184082031	31.2115364074707	-625.6110229492188	327.984619140625	283.2739868164062	-618.697998046875	465.0415344238281	39.69184875488281	-482.4856262207031	385.1806030273438	37.31883239746094	-472.7670593261719	416.4878540039062	31.1551399230957	-587.4420166015625	216.6858520507812	40.70542907714844	-602.914794921875	240.0208435058594	496.6361999511719	-320.9516906738281	215.5012817382812	764.3997192382812	-295.4063110351562	-107.3069839477539	161.3421325683594	-428.5193481445312	198.9220123291016	388.7147216796875	-348.7913513183594	53.11636734008789	43.14705276489258	-472.3012084960938	14.40540981292725	81.13956451416016	-516.0235595703125	-36.18346786499023	77.16922760009766	-408.2875061035156	-138.2616577148438	217.0537719726562	-481.4562072753906	
539	5.38	79.48021697998047	1029.094848632812	-445.2348022460938	116.6370544433594	1042.143310546875	-559.1857299804688	99.72024536132812	1121.92333984375	-519.681884765625	342.2431640625	1298.92529296875	-439.2863464355469	101.6824798583984	1247.899780273438	-516.5517578125	167.6864624023438	1507.578125	-498.5867919921875	321.1697692871094	1417.359008789062	-444.7845153808594	69.23143768310547	1371.367919921875	-454.9133911132812	184.8430633544922	1469.50732421875	-610.281005859375	288.065185546875	1468.864501953125	-632.1770629882812	291.8304138183594	1354.80126953125	-719.5072631835938	335.1153564453125	1149.310302734375	-752.04638671875	251.9974060058594	1123.382080078125	-737.3485107421875	428.5625610351562	927.8218383789062	-665.22119140625	438.8235168457031	912.1996459960938	-748.2380981445312	375.6785583496094	1046.9287109375	-757.0838623046875	473.8954772949219	736.4548950195312	-668.6469116210938	467.2774963378906	825.8331298828125	-736.47216796875	484.7039489746094	835.3275146484375	-670.95458984375	168.4031677246094	1465.301879882812	-319.7206420898438	124.4621353149414	1402.724731445312	-263.7173156738281	71.5804443359375	1125.804443359375	-232.736328125	68.92607879638672	1118.193237304688	-327.5966796875	213.3039855957031	911.9771118164062	-225.6478271484375	142.9736022949219	897.550048828125	-182.2489471435547	91.11031341552734	1056.970947265625	-211.1765594482422	232.3536529541016	719.5185546875	-223.0230865478516	247.2293701171875	792.6251220703125	-195.8620452880859	181.5787048339844	792.036376953125	-165.4020385742188	184.5696258544922	1654.14794921875	-433.8851318359375	403.2963256835938	1714.082397460938	-452.2557678222656	369.0302429199219	1707.522216796875	-358.364501953125	271.6980285644531	1671.115356445312	-542.1728515625	255.233154296875	989.935302734375	-664.2788696289062	140.9263610839844	985.2631225585938	-315.4972839355469	243.2950286865234	1034.3125	-319.5372924804688	336.6260681152344	1028.52099609375	-584.207275390625	359.1275634765625	513.799072265625	-594.4132690429688	337.2575988769531	653.7543334960938	-629.828857421875	293.2622375488281	31.37482452392578	-625.4871215820312	329.729736328125	282.9298095703125	-617.869384765625	465.0850524902344	39.52852630615234	-482.2821044921875	385.2195434570312	37.14547348022461	-472.6848754882812	416.5067749023438	31.17937469482422	-587.4385375976562	216.6615905761719	40.83658218383789	-602.85546875	250.4203948974609	498.4506530761719	-317.2107238769531	220.9154052734375	765.8152465820312	-293.5447692871094	-95.1593017578125	164.2316284179688	-429.6031494140625	210.2454071044922	390.7521057128906	-345.3160400390625	67.520263671875	44.57952117919922	-462.7767028808594	30.30153465270996	81.40552520751953	-509.2833557128906	-24.66948318481445	81.28292083740234	-403.4192810058594	-124.4046173095703	217.9598693847656	-485.2419738769531	
540	5.39	83.71246337890625	1029.373291015625	-446.0099792480469	122.1321868896484	1042.363525390625	-559.5702514648438	104.9217681884766	1122.552124023438	-520.4522094726562	346.7921447753906	1298.999145507812	-436.9609375	107.3433227539062	1248.413452148438	-517.5078735351562	173.5279998779297	1508.007934570312	-498.7435607910156	326.0155944824219	1417.487670898438	-442.7427062988281	73.99851226806641	1372.013671875	-456.581787109375	192.2729797363281	1469.876220703125	-610.2517700195312	295.8335266113281	1468.9873046875	-630.5324096679688	301.2560424804688	1354.934936523438	-717.6548461914062	346.1640625	1149.712158203125	-749.4200439453125	262.881103515625	1123.399047851562	-736.3736572265625	438.8787536621094	928.6804809570312	-660.888916015625	450.7785949707031	912.9749755859375	-743.6817016601562	387.2489624023438	1047.485595703125	-753.7428588867188	485.53271484375	737.7230834960938	-663.035400390625	479.3013916015625	826.521728515625	-730.98828125	495.7615051269531	836.6873168945312	-665.4171752929688	171.5645751953125	1465.698486328125	-319.8340759277344	126.7118911743164	1403.060424804688	-264.5546264648438	73.54335784912109	1126.021118164062	-234.589111328125	72.56237030029297	1118.389404296875	-329.4798278808594	216.1663970947266	913.0439453125	-225.1215057373047	145.0701446533203	898.0697631835938	-183.0520629882812	92.96566009521484	1057.245727539062	-212.7169799804688	237.1280975341797	720.9300537109375	-221.6508178710938	250.6642608642578	794.1910400390625	-194.3329162597656	184.3703155517578	792.967529296875	-165.2916412353516	189.7341461181641	1654.521728515625	-433.8581237792969	408.7203063964844	1714.201782226562	-449.5279235839844	373.2401733398438	1707.8037109375	-356.0634460449219	278.2350463867188	1671.261474609375	-541.0615234375	262.3825988769531	989.8347778320312	-663.1394653320312	143.9599151611328	986.0836181640625	-315.5125427246094	246.1998596191406	1034.836059570312	-318.7733764648438	342.3800354003906	1028.65478515625	-582.5142211914062	362.269775390625	513.1951904296875	-593.0384521484375	341.5202331542969	653.4603881835938	-628.3814697265625	293.2496948242188	31.55461883544922	-625.3517456054688	331.5441589355469	282.587890625	-616.9544067382812	465.137451171875	39.37527465820312	-482.0867309570312	385.2519836425781	36.97929000854492	-472.5910339355469	416.5220642089844	31.20175170898438	-587.414794921875	216.6285858154297	40.97183609008789	-602.7853393554688	260.3817443847656	500.5017395019531	-313.4712829589844	226.1245727539062	767.4102783203125	-291.5792236328125	-82.04965972900391	165.9252319335938	-430.4655456542969	221.3449096679688	392.9083862304688	-341.7255859375	82.93780517578125	46.00358963012695	-453.2071838378906	47.03374099731445	81.04727172851562	-502.3255615234375	-11.85594654083252	84.72975921630859	-398.46142578125	-109.8598556518555	217.3935241699219	-488.8170471191406	
